Coordinates
version=1
nRows=19
nColumns=24
inDegrees=yes

Units are S.I. units (second, meters, Newtons, ...)
Angles are in degrees.

endheader
time	pelvis_tilt	pelvis_list	pelvis_rotation	pelvis_tx	pelvis_ty	pelvis_tz	hip_flexion_r	hip_adduction_r	hip_rotation_r	knee_angle_r	ankle_angle_r	subtalar_angle_r	mtp_angle_r	hip_flexion_l	hip_adduction_l	hip_rotation_l	knee_angle_l	ankle_angle_l	subtalar_angle_l	mtp_angle_l	lumbar_extension	lumbar_bending	lumbar_rotation
      0.68700000	      2.06422861	     -5.45977840	      2.82916205	     -0.47496536	      1.00255553	      0.30833610	      7.46265461	     10.83231227	     -1.31294894	    -15.87023289	      5.52238107	    -17.47810755	     -4.76414524	     18.69517852	     -5.67535368	      1.07565731	    -70.84961289	     -8.50111744	     -7.68442689	      4.31823464	     -3.37466071	      9.73257322	      2.92766810
      0.69116667	      2.15463340	     -5.34258010	      2.83355745	     -0.46959015	      1.00361252	      0.30850663	      6.71412098	     10.76787799	     -1.08948774	    -15.30794152	      5.56845762	    -17.71230752	     -5.07720909	     19.20226592	     -5.48629376	      1.13507342	    -70.58452426	     -7.91922980	     -7.88740287	      3.43301562	     -3.48938351	      9.60487242	      3.12219945
      0.69533333	      2.21504467	     -5.17513829	      2.84039697	     -0.46421834	      1.00457204	      0.30859184	      6.04461340	     10.61145229	     -1.05276117	    -14.83478709	      5.58709365	    -17.52849966	     -5.11974301	     19.71568632	     -5.22327527	      1.18563195	    -70.24289899	     -7.37810681	     -8.19127053	      3.33694258	     -3.55953504	      9.41179998	      3.12655364
      0.69950000	      2.24538252	     -5.02326777	      2.81469067	     -0.45887250	      1.00543430	      0.30874049	      5.42114140	     10.47943774	     -0.95891469	    -14.39382633	      5.66774530	    -17.45330594	     -5.14402642	     20.24488497	     -4.99636551	      1.19647160	    -69.85232238	     -6.78117784	     -8.47362487	      3.28645218	     -3.60131104	      9.22369900	      3.19248228
      0.70366667	      2.33273153	     -4.86544379	      2.79128436	     -0.45349335	      1.00637497	      0.30886557	      4.70623649	     10.34432671	     -0.82729321	    -13.89446394	      5.71681958	    -17.39792302	     -5.19350294	     20.67638515	     -4.76548804	      1.20118374	    -69.37079287	     -6.24564998	     -8.74485176	      3.18416078	     -3.71348163	      9.05794229	      3.33132352
      0.70783333	      2.33666221	     -4.71155195	      2.74026859	     -0.44816733	      1.00711325	      0.30902040	      4.12209033	     10.20615361	     -0.70356677	    -13.47438084	      5.79403677	    -17.33997427	     -5.21584866	     21.18890030	     -4.54044040	      1.18618552	    -68.85437526	     -5.64812021	     -9.01933404	      3.14081436	     -3.73839091	      8.88197378	      3.40630427
      0.71200000	      2.43313768	     -4.54854640	      2.68739002	     -0.44278906	      1.00796256	      0.30919227	      3.40350284	     10.06411254	     -0.55375223	    -12.98859735	      5.84544441	    -17.29711193	     -5.27513191	     21.56126104	     -4.32970152	      1.13646430	    -68.24607276	     -5.12708341	     -9.28821887	      3.02137735	     -3.86182593	      8.69083570	      3.59459296
      0.71616667	      2.44251992	     -4.40174100	      2.60260747	     -0.43744540	      1.00860970	      0.30938633	      2.81996714	      9.92917334	     -0.41874371	    -12.58317664	      5.91337707	    -17.24570612	     -5.31247420	     22.01568689	     -4.14042672	      1.06422930	    -67.60361708	     -4.53361053	     -9.55245707	      2.94784030	     -3.87871837	      8.52181966	      3.70166895
      0.72033333	      2.52862488	     -4.24763556	      2.53835597	     -0.43210010	      1.00932373	      0.30955073	      2.12561696	      9.79020730	     -0.25817778	    -12.11718036	      5.98083797	    -17.18814361	     -5.38700216	     22.36195657	     -3.94218634	      1.00564642	    -66.88765545	     -4.02223670	     -9.80114301	      2.79289855	     -4.00875232	      8.34413688	      3.91111004
      0.72450000	      2.55212218	     -4.09405648	      2.44418434	     -0.42676380	      1.00989232	      0.30974665	      1.52550849	      9.64359339	     -0.10603281	    -11.70504838	      6.05380362	    -17.11670726	     -5.46639812	     22.75281938	     -3.75442463	      0.91549143	    -66.11935342	     -3.48633699	    -10.05161480	      2.62300823	     -4.05886094	      8.16557363	      4.08212426
      0.72866667	      2.59967632	     -3.94539271	      2.34421211	     -0.42142383	      1.01043912	      0.30995219	      0.90199267	      9.49963513	      0.03538916	    -11.29574147	      6.13209554	    -17.03046638	     -5.53738374	     23.09445220	     -3.58405032	      0.80831868	    -65.29409590	     -2.96547182	    -10.29261781	      2.46418865	     -4.13419087	      7.98507345	      4.23887419
      0.73283333	      2.62373932	     -3.81503172	      2.24137885	     -0.41609888	      1.01087331	      0.31014134	      0.31388489	      9.37025898	      0.17748853	    -10.90069957	      6.20910651	    -16.93529986	     -5.61892440	     23.44732546	     -3.43140958	      0.70705637	    -64.42529141	     -2.46152311	    -10.51919083	      2.27224181	     -4.18647977	      7.83711332	      4.42057594
      0.73700000	      2.65126235	     -3.67707254	      2.12780364	     -0.41077540	      1.01125669	      0.31034658	     -0.27031325	      9.22848837	      0.31065919	    -10.51890946	      6.29378118	    -16.82159344	     -5.69468479	     23.77046911	     -3.27988872	      0.58582127	    -63.49781011	     -1.97957199	    -10.74477480	      2.08135770	     -4.24420766	      7.67572940	      4.58531207
      0.74116667	      2.65230311	     -3.57700370	      2.02040105	     -0.40548355	      1.01150447	      0.31052186	     -0.80503859	      9.12144652	      0.41053620	    -10.16795456	      6.37676059	    -16.70565849	     -5.90113405	     24.11781309	     -3.15951791	      0.49225828	    -62.54664838	     -1.46211000	    -10.98153897	      1.53552298	     -4.28252095	      7.57583491	      4.86085149
      0.74533333	      2.65059089	     -3.44885763	      1.89755114	     -0.40015882	      1.01173775	      0.31074238	     -1.35259988	      8.98535577	      0.56019340	     -9.79090401	      6.47308552	    -16.58019483	     -5.96792462	     24.43124306	     -3.03142483	      0.35381077	    -61.51134391	     -1.08806877	    -11.15292650	      1.34462737	     -4.29863482	      7.40984178	      4.92414990
      0.74950000	      2.65252055	     -3.34634619	      1.77666964	     -0.39485316	      1.01188249	      0.31095198	     -1.88548549	      8.87206790	      0.67290932	     -9.44207281	      6.55574124	    -16.45136347	     -6.02306178	     24.72866473	     -2.92956984	      0.22670648	    -60.44496713	     -0.68615026	    -11.33700409	      1.17210220	     -4.32618913	      7.28945515	      5.06871444
      0.75366667	      2.65897241	     -3.24041496	      1.66634371	     -0.38954654	      1.01199164	      0.31113284	     -2.42347879	      8.75203572	      0.76993218	     -9.08910593	      6.65091386	    -16.30752480	     -6.08505880	     24.99685450	     -2.81575751	      0.11466636	    -59.31837091	     -0.34239290	    -11.52668952	      0.95983701	     -4.36406615	      7.16944525	      5.24657389
      0.75783333	      2.61401518	     -3.16024135	      1.54003810	     -0.38428105	      1.01194654	      0.31132785	     -2.88031993	      8.65667302	      0.88955626	     -8.78223996	      6.73792299	    -16.18327785	     -6.11717979	     25.30931957	     -2.73385980	      0.00127957	    -58.16120007	      0.01130447	    -11.66724938	      0.83659008	     -4.34846630	      7.08530319	      5.34302364
      0.76200000	      2.63448805	     -3.08363364	      1.45988437	     -0.37897479	      1.01194501	      0.31147425	     -3.43638666	      8.56715964	      0.94505669	     -8.41117468	      6.84727724	    -16.02659928	     -6.18840264	     25.53023491	     -2.64507552	     -0.08069188	    -56.94746993	      0.26300656	    -11.83120573	      0.55319971	     -4.40280668	      6.99513141	      5.56715878
